<svg id="about" xmlns="http://www.w3.org/2000/svg" fill="currentColor" xmlns:xlink="http://www.w3.org/1999/xlink" width="20" height="20" viewBox="0 0 20 20">
  <defs>
    <clipPath id="clip-path">
      <rect id="Rectangle_916" data-name="Rectangle 916" width="20" height="20" fill="none"/>
    </clipPath>
  </defs>
  <g id="Group_2114" data-name="Group 2114">
    <g id="Group_2114-2" data-name="Group 2114" clip-path="url(#clip-path)">
      <path id="Path_886" data-name="Path 886" d="M16,17.212H4a1.8,1.8,0,0,1-1.8-1.8V8.178a1.789,1.789,0,0,1,.843-1.524l6-3.767a1.814,1.814,0,0,1,1.914,0l6,3.766A1.792,1.792,0,0,1,17.8,8.178v7.234a1.8,1.8,0,0,1-1.8,1.8m-6-13a.193.193,0,0,0-.106.031l-6,3.766a.2.2,0,0,0-.094.169v7.234a.2.2,0,0,0,.2.2H16a.2.2,0,0,0,.2-.2V8.178a.2.2,0,0,0-.094-.17l-6-3.765A.193.193,0,0,0,10,4.212"/>
      <path id="Path_887" data-name="Path 887" d="M10,10.4h0a.851.851,0,0,1,.85.85v2.3a.85.85,0,0,1-1.7,0v-2.3A.851.851,0,0,1,10,10.4"/>
      <path id="Path_888" data-name="Path 888" d="M10,7.335h0a1,1,0,1,1-1,1,1,1,0,0,1,1-1"/>
    </g>
  </g>
</svg>
